<svg xmlns="http://www.w3.org/2000/svg" width="15" height="18" style=""><rect id="backgroundrect" width="100%" height="100%" x="0" y="0" fill="none" stroke="none"/><g class="currentLayer" style=""><title>Layer 1</title><path d="M7.644481439590454,5.310000162124634 c-0.7300000000000002,0 -1.86,-0.8300000000000002 -3.05,-0.8 c-1.57,0.020000000000000007 -3.01,0.91 -3.8200000000000003,2.3200000000000003 c-1.6300000000000003,2.83 -0.4200000000000001,7.01 1.17,9.31 c0.78,1.12 1.7000000000000002,2.38 2.92,2.34 c1.17,-0.05000000000000002 1.61,-0.7600000000000002 3.03,-0.7600000000000002 c1.4100000000000001,0 1.81,0.7600000000000002 3.05,0.7300000000000002 c1.26,-0.020000000000000007 2.06,-1.1400000000000001 2.83,-2.27 c0.8900000000000002,-1.3 1.26,-2.56 1.28,-2.63 c-0.030000000000000013,-0.010000000000000004 -2.45,-0.9400000000000002 -2.48,-3.74 c-0.020000000000000007,-2.34 1.9100000000000001,-3.46 2,-3.51 c-1.1,-1.61 -2.79,-1.79 -3.38,-1.83 c-1.54,-0.12000000000000002 -2.83,0.8400000000000002 -3.55,0.8400000000000002 zm2.6,-2.36 c0.6500000000000002,-0.78 1.08,-1.87 0.9600000000000002,-2.95 c-0.93,0.040000000000000015 -2.05,0.6200000000000002 -2.72,1.4 c-0.6000000000000002,0.6900000000000004 -1.12,1.8 -0.98,2.8600000000000003 c1.03,0.08000000000000003 2.09,-0.53 2.74,-1.31 " fill="#fff" id="svg_1" class=""/></g></svg>